# xmcd
#
# Track frame offsets:
#	150
#	48249
#	98923
#	121818
#
# Disc length: 2087 seconds
#
# Revision: 0
# Processed by: cddbd v1.5.2PL0 Copyright (c) Steve Scherf et al.
# Submitted via: audiograbber 1.83.01
#
DISCID=29082504
DTITLE=Grateful Dead - 94-07-23 Soldier Field, Chicago IL
DYEAR=1900
DGENRE=
TTITLE0=The Other One
TTITLE1=Wharf Rat
TTITLE2=One More Saturday Night
TTITLE3=Knocking On Heaven's Door
EXTD=
EXTT0=
EXTT1=
EXTT2=
EXTT3=
PLAYORDER=
